<svg width="20" height="25" viewBox="0 0 20 25" fill="none" xmlns="http://www.w3.org/2000/svg">
<path d="M14.1667 3.81641H5.83341C3.53223 3.81641 1.66675 5.68189 1.66675 7.98307V16.3164C1.66675 18.6176 3.53223 20.4831 5.83341 20.4831H14.1667C16.4679 20.4831 18.3334 18.6176 18.3334 16.3164V7.98307C18.3334 5.68189 16.4679 3.81641 14.1667 3.81641Z" stroke="#C4CFDE" stroke-width="1.66667" stroke-linecap="round" stroke-linejoin="round"/>
<path d="M13.3333 11.6256C13.4361 12.3192 13.3176 13.0275 12.9947 13.6498C12.6718 14.2722 12.1609 14.7768 11.5346 15.092C10.9083 15.4073 10.1986 15.517 9.50641 15.4056C8.81419 15.2942 8.17472 14.9674 7.67895 14.4716C7.18318 13.9758 6.85636 13.3364 6.74497 12.6442C6.63359 11.9519 6.74331 11.2422 7.05852 10.616C7.37374 9.98969 7.87841 9.47876 8.50074 9.15584C9.12307 8.83293 9.83138 8.71447 10.5249 8.81731C11.2324 8.92221 11.8873 9.25186 12.393 9.75756C12.8987 10.2633 13.2283 10.9182 13.3333 11.6256Z" stroke="#C4CFDE" stroke-width="1.66667" stroke-linecap="round" stroke-linejoin="round"/>
<path d="M14.5833 7.56641H14.5916" stroke="#C4CFDE" stroke-width="1.66667" stroke-linecap="round" stroke-linejoin="round"/>
</svg>
