<svg width="20" height="25" viewBox="0 0 20 25" fill="none" xmlns="http://www.w3.org/2000/svg">
<path d="M13.3333 8.81641C14.6593 8.81641 15.9311 9.34319 16.8688 10.2809C17.8065 11.2186 18.3333 12.4903 18.3333 13.8164V19.6497H14.9999V13.8164C14.9999 13.3744 14.8243 12.9505 14.5118 12.6379C14.1992 12.3253 13.7753 12.1497 13.3333 12.1497C12.8912 12.1497 12.4673 12.3253 12.1547 12.6379C11.8422 12.9505 11.6666 13.3744 11.6666 13.8164V19.6497H8.33325V13.8164C8.33325 12.4903 8.86004 11.2186 9.79772 10.2809C10.7354 9.34319 12.0072 8.81641 13.3333 8.81641Z" stroke="#C4CFDE" stroke-width="1.66667" stroke-linecap="round" stroke-linejoin="round"/>
<path d="M5.00008 9.65039H1.66675V19.6504H5.00008V9.65039Z" stroke="#C4CFDE" stroke-width="1.66667" stroke-linecap="round" stroke-linejoin="round"/>
<path d="M3.33341 7.14974C4.25389 7.14974 5.00008 6.40355 5.00008 5.48307C5.00008 4.5626 4.25389 3.81641 3.33341 3.81641C2.41294 3.81641 1.66675 4.5626 1.66675 5.48307C1.66675 6.40355 2.41294 7.14974 3.33341 7.14974Z" stroke="#C4CFDE" stroke-width="1.66667" stroke-linecap="round" stroke-linejoin="round"/>
</svg>
